<?xml version="1.0" encoding="UTF-8"?>
<svg id="Layer_2" xmlns="http://www.w3.org/2000/svg" version="1.1" viewBox="0 0 893.4 739.7">
  <!-- Generator: Adobe Illustrator 29.5.0, SVG Export Plug-In . SVG Version: 2.1.0 Build 137)  -->
  <defs>
    <style>
      .st0 {
        fill: #265ba4;
      }

      .st1 {
        fill: #e9645c;
      }

      .st2 {
        fill: #f09187;
      }
    </style>
  </defs>
  <path class="st2" d="M647.1,146.8l-53.3,159.2c174,18,298.8,66.8,298.8,124.2v-165.9c0-51.4-99.9-95.8-245.5-117.5h0Z"/>
  <path class="st2" d="M402.7,133.4C176.7,139.8,0,196,0,264.3v165.9c0-62.5,148-114.8,346.3-128.2l56.4-168.6h0Z"/>
  <path class="st1" d="M.7,264.3v164.8c0,72.6,199.8,131.5,446.3,131.5s446.4-58.9,446.4-131.5v-164.8c0,72.6-199.8,131.5-446.4,131.5S.7,336.9.7,264.3"/>
  <path class="st0" d="M345.7,379.9c9.1.6,18.3,1.2,27.6,1.6.5,0,.9,0,1.4,0,4,.2,8,.4,12.1.5.8,0,1.6,0,2.5.1,9,.3,18,.6,27,.8,1.1,0,2.2,0,3.3,0,3.4,0,6.9.1,10.3.1,1.2,0,2.5,0,3.8,0,4.5,0,8.9,0,13.4,0s8.7,0,13,0c1.2,0,2.5,0,3.7,0,3.2,0,6.5,0,9.7-.1,1.2,0,2.4,0,3.6,0,4,0,8-.2,12-.3.3,0,.5,0,.8,0,4.6-.1,9.1-.3,13.7-.5.3,0,.5,0,.8,0,4.2-.2,8.4-.3,12.6-.5.5,0,1,0,1.6,0,13.6-.6,27.1-1.5,40.3-2.5h0L685.7,0h-227.8l-126.8,378.8c4.5.4,8.9.7,13.4,1,.4,0,.8,0,1.2,0h0Z"/>
  <path class="st0" d="M471.2,572.9h-.5c-3.5,0-7,0-10.5.1-.5,0-1,0-1.5,0-3.9,0-7.8,0-11.7,0s-7.6,0-11.4,0c-1,0-2.1,0-3.1,0-2.8,0-5.5,0-8.3,0-1.2,0-2.3,0-3.5,0-2.6,0-5.3,0-7.9-.2-1.1,0-2.2,0-3.3,0-2.7,0-5.4-.1-8.1-.2-1,0-2,0-3,0-2.8,0-5.6-.2-8.4-.3-.9,0-1.8,0-2.6-.1-2.9-.1-5.8-.2-8.6-.4-.8,0-1.5,0-2.2-.1-3-.1-6-.3-9-.4-.6,0-1.3,0-1.9,0-3.1-.2-6.2-.3-9.3-.5-.5,0-1,0-1.5,0-3.2-.2-6.4-.4-9.6-.6-.4,0-.8,0-1.2,0-3.3-.2-6.6-.5-9.9-.7-.3,0-.6,0-.9,0-3.4-.3-6.7-.5-10.1-.8-.2,0-.4,0-.6,0-3.5-.3-6.9-.6-10.3-.9h-.4c-3.5-.4-7-.7-10.4-1,0,0-.1,0-.2,0-3.5-.3-7-.7-10.5-1.1h0c-7-.8-14-1.6-21-2.5l-59.4,177.2h0s227.8,0,227.8,0l56-167.3h0c-7.6.2-15.3.4-23.1.5h0Z"/>
</svg>